<?xml version="1.0" encoding="utf-8"?>
<!-- Generator: Adobe Illustrator 16.0.0, SVG Export Plug-In . SVG Version: 6.00 Build 0)  -->
<!DOCTYPE svg PUBLIC "-//W3C//DTD SVG 1.1//EN" "http://www.w3.org/Graphics/SVG/1.1/DTD/svg11.dtd">
<svg version="1.1" id="Layer_1" xmlns="http://www.w3.org/2000/svg" xmlns:xlink="http://www.w3.org/1999/xlink" x="0px" y="0px"
	 width="768px" height="842.5px" viewBox="0 0 768 842.5" enable-background="new 0 0 768 842.5" xml:space="preserve">
<path fill="#FFFFFF" d="M286.517,780.062c-33.211,0-67.395-2.688-101.783-8.079c-60.568-9.505-121.88-41.187-139.229-50.673
	L0,696.433l49.266-16.2c53.853-17.707,124.681-41.529,165.234-58.732c-39-5-109.968-42.2-125.033-87.927
	c0,0-19.348-39.448-11.461-34.793C116.5,521.5,159.5,517.5,146.5,511.5c-21.473-11.489-70.545-37.427-76-45.718
	c-19.4-29.467-34.171-57.431-31.986-88.285c0,0-3.366-35.607,2.156-30.369C88.5,392.5,141.5,398.5,126.5,387.5
	c-38.251-28.051-68.742-62.787-72-79c-7.939-39.539-13.414-82.039,6.596-118.772l15.837-29.074l21.182,25.441
	c66.99,80.473,151.839,128.208,252.544,142.183c-4.113-28.354-1.031-55.716,9.17-80.244c11.877-28.559,33.005-52.775,61.083-70.037
	c31.184-19.166,69-28.453,106.482-26.15c39.768,2.443,75.872,17.344,104.549,43.119c14.003-3.639,24.32-7.523,38.267-12.773
	c8.392-3.158,17.906-6.744,29.812-10.846l43.875-15.117L682.5,248.5c1.887-0.158,3.832-0.293,5.865-0.381l79.638-12.676
	l-27.69,37.846c-1.589,2.168-1.992,2.783-2.556,3.633c-2.231,3.363-5.01,7.547-43.02,58.3
	c-9.517,12.709-14.269,29.262-13.383,46.617c3.368,65.953-4.724,125.625-24.064,177.352c-18.293,48.937-46.64,90.925-84.245,124.798
	c-46.535,41.905-105.873,70.6-176.373,85.271C362.091,776.454,324.954,780.062,286.517,780.062z"/>
</svg>
