<?xml version="1.0" encoding="utf-8"?>
<!-- Generator: Adobe Illustrator 16.0.0, SVG Export Plug-In . SVG Version: 6.00 Build 0)  -->
<!DOCTYPE svg PUBLIC "-//W3C//DTD SVG 1.1//EN" "http://www.w3.org/Graphics/SVG/1.1/DTD/svg11.dtd">
<svg version="1.1" id="Layer_1" xmlns="http://www.w3.org/2000/svg" xmlns:xlink="http://www.w3.org/1999/xlink" x="0px" y="0px"
	 width="768px" height="1024px" viewBox="0 0 768 1024" enable-background="new 0 0 768 1024" xml:space="preserve">
<path fill="#FFFFFF" d="M114,896c62.027,0,112.5-51.973,112.5-114S176.027,668,114,668S0,719.973,0,782S51.973,896,114,896z"/>
<path fill="#FFFFFF" d="M363,873.5c0,7.594-0.645,15.029-1.143,22.5h135c0.357-7.512,1.143-14.906,1.143-22.5
	C498,612.969,283.031,398,22.5,398c-7.594,0-14.988,0.785-22.5,1.143v135C7.471,533.645,14.906,533,22.5,533
	C208.605,533,363,687.395,363,873.5z"/>
<path fill="#FFFFFF" d="M22.5,128c-7.6,0-14.959,0.914-22.5,1.137v135.006C7.529,263.861,14.906,263,22.5,263
	C357.475,263,633,538.525,633,873.5c0,7.594-0.861,14.971-1.143,22.5h135.006c0.223-7.541,1.137-14.9,1.137-22.5
	C768,463.426,432.568,128,22.5,128z"/>
</svg>
